<?xml version="1.0" encoding="utf-8"?>
<!-- Generator: Adobe Illustrator 23.0.3, SVG Export Plug-In . SVG Version: 6.00 Build 0)  -->
<svg version="1.1" id="Camada_1" xmlns="http://www.w3.org/2000/svg" xmlns:xlink="http://www.w3.org/1999/xlink" x="0px" y="0px"
	 viewBox="0 0 64 64" style="enable-background:new 0 0 64 64;" xml:space="preserve" width="64px" height="64px">
<style type="text/css">
	.st0{fill:#AE70AF;}
	.st1{fill:#FFFFFF;stroke:#FFFFFF;}
</style>
<g transform="translate(-1173 -656)">
	<circle class="st0" cx="1205" cy="688" r="32"/>
	<path class="st1" d="M1220.2,683.3h-1.9v-3.5c0-0.8-0.7-1.5-1.5-1.5h-13.7l-2.8-3.9h-10.4c-0.8,0-1.5,0.7-1.5,1.5v24.1l0,0
		c0,0.3,0.1,0.6,0.3,0.9c0.3,0.3,0.7,0.6,1.1,0.6h24.7c0.7,0,1.2-0.4,1.4-1l5.6-15.4V685C1221.6,684,1220.9,683.3,1220.2,683.3z
		 M1189.6,676c0-0.2,0.2-0.4,0.4-0.4h9.8l2.8,3.9h14.2c0.2,0,0.4,0.2,0.4,0.4v3.5h-21.7c-0.1,0-0.2,0-0.2,0c-0.6,0.1-1,0.5-1.1,1
		l-4.6,12.5L1189.6,676L1189.6,676z M1214.9,700.2c-0.1,0.1-0.2,0.2-0.3,0.2h-24.7c-0.1,0-0.2-0.1-0.2-0.1c-0.1-0.1-0.1-0.2-0.1-0.2
		l5.6-15.4c0.1-0.1,0.2-0.2,0.3-0.2h22.8h1.9c0.2,0,0.3,0.3,0.3,0.4L1214.9,700.2z"/>
</g>
</svg>
