<?xml version="1.0" encoding="utf-8"?>
<!-- Generator: Adobe Illustrator 23.0.3, SVG Export Plug-In . SVG Version: 6.00 Build 0)  -->
<svg version="1.1" id="Camada_1" xmlns="http://www.w3.org/2000/svg" xmlns:xlink="http://www.w3.org/1999/xlink" x="0px" y="0px"
	 width="116px" height="116px" viewBox="0 0 116 116" style="enable-background:new 0 0 116 116;" xml:space="preserve">
<style type="text/css">
	.st0{fill:#FFFFFF;}
	.st1{fill:#AE70AF;}
</style>
<circle class="st0" cx="58" cy="58" r="58"/>
<path class="st1" d="M85.5,49.7h-3.6v-6.5c0-1.5-1.1-2.9-2.9-2.9H54.3L49.2,33H30.4c-1.5,0-2.9,1.1-2.9,2.9v43.5l0,0
	c0,0.4,0.4,1.1,0.7,1.8c0.7,0.4,1.1,1.1,1.8,1.1h45c1.1,0,2.2-0.7,2.5-1.8l10.2-27.9l0,0C88.1,50.8,86.6,49.7,85.5,49.7z M30.1,36.3
	c0-0.4,0.4-0.7,0.7-0.7h17.8l5.1,7.3h25.7c0.4,0,0.7,0.4,0.7,0.7v6.5H40.6h-0.4c-1.1,0-1.8,1.1-2.2,1.8l-8.3,22.8V36.3L30.1,36.3
	L30.1,36.3z M75.8,80.1l-0.4,0.4h-45H30c-0.4,0-0.4-0.4-0.4-0.4l10.2-27.9l0.4-0.4h41.3h3.3c0.4,0,0.7,0.7,0.7,0.7L75.8,80.1z"/>
</svg>
