<?xml version="1.0" encoding="utf-8"?>
<!-- Generator: Adobe Illustrator 23.0.3, SVG Export Plug-In . SVG Version: 6.00 Build 0)  -->
<svg version="1.1" id="Camada_1" xmlns="http://www.w3.org/2000/svg" xmlns:xlink="http://www.w3.org/1999/xlink" x="0px" y="0px"
	 viewBox="0 0 64 64" style="enable-background:new 0 0 64 64;" xml:space="preserve" width="64px" height="64px">
<style type="text/css">
	.st0{fill:#076BB6;}
	.st1{fill:#FFFFFF;}
</style>
<circle class="st0" cx="32" cy="32" r="32"/>
<g>
	<path class="st1" d="M46.1,33.3l-4.7-1.5l-3-10h-3.1v-1.7c0-1-1-1.9-2.2-1.9H30c-1.2,0-2.2,0.8-2.2,1.9v1.7h-3.1l-2.9,9.8L18,32.9
		l3.5,7.1c-1.2,0.6-2.2,1.2-2.5,1.3l0.5,1c0.6-0.2,3.6-2.4,5.7-2c0.5,0.1,1.9,0.7,2,0.8c2.4,1,5.4,1,7.8,0c0.3-0.1,1.8-0.8,2.3-0.9
		c2-0.5,4.2,0.6,6.1,1.5l0.6-1c-0.7-0.3-1.4-0.7-2.1-1L46.1,33.3z M29,20.1c0-0.4,0.4-0.7,1-0.7h3.1c0.6,0,1,0.3,1,0.7v1.7H29
		L29,20.1L29,20.1z M25.6,23h11.9l2.5,8.4l-8.4-2.8l-8.4,2.6L25.6,23z M25.4,39.2c-0.9-0.2-1.9,0.1-2.8,0.3l-2.9-6L31,30v10.6
		c-1.2,0-2.3-0.2-3.3-0.7C27.5,39.9,26,39.3,25.4,39.2z M37.1,39c-0.6,0.2-2.3,0.9-2.5,1c-0.8,0.3-1.6,0.5-2.5,0.6V30l12.1,4
		l-3.4,5.2C39.6,38.8,38.3,38.7,37.1,39z"/>
	<path class="st1" d="M37.1,42.5c-0.6,0.2-2.3,0.9-2.5,1c-2.2,0.9-4.8,0.9-6.9,0c-0.2-0.1-1.7-0.8-2.3-0.9c-2.6-0.4-5.8,1.9-6.3,2.1
		l0.5,1c0.6-0.2,3.6-2.4,5.7-2c0.5,0.1,1.9,0.7,2,0.8c2.4,1,5.4,1,7.8,0c0.3-0.1,1.8-0.8,2.3-0.9c2-0.5,4.2,0.6,6.1,1.5l0.6-1
		C42,43,39.6,41.9,37.1,42.5z"/>
</g>
</svg>
