<?xml version="1.0" encoding="utf-8"?>
<!-- Generator: Adobe Illustrator 23.0.3, SVG Export Plug-In . SVG Version: 6.00 Build 0)  -->
<svg version="1.1" id="Camada_1" xmlns="http://www.w3.org/2000/svg" xmlns:xlink="http://www.w3.org/1999/xlink" x="0px" y="0px"
	 viewBox="0 0 116 116" style="enable-background:new 0 0 116 116;" xml:space="preserve">
<style type="text/css">
	.st0{fill:#076BB6;}
	.st1{fill:#FFFFFF;}
</style>
<circle class="st0" cx="58" cy="58" r="58"/>
<g>
	<path class="st1" d="M83.5,60.4L75,57.7l-5.4-18.1h-5.6v-3.1c0-1.9-1.8-3.4-3.9-3.4h-5.7c-2.2,0-3.9,1.5-3.9,3.4v3.1h-5.6
		l-5.3,17.8l-6.9,2.2l6.3,12.8c-2.2,1-4,2.2-4.5,2.4l0.9,1.9c1-0.4,6.5-4.4,10.3-3.7c0.9,0.2,3.4,1.3,3.7,1.4
		c4.4,1.8,9.8,1.8,14.2,0c0.5-0.2,3.3-1.5,4.2-1.7c3.7-0.9,7.7,1,11.1,2.8l1-1.9c-1.2-0.6-2.5-1.3-3.8-1.9L83.5,60.4z M52.5,36.5
		c0-0.7,0.8-1.3,1.8-1.3H60c1,0,1.8,0.6,1.8,1.3v3.1h-9.2V36.5z M46.4,41.7H68l4.5,15.2l-15.3-5l-15.3,4.8L46.4,41.7z M46,71
		c-1.7-0.3-3.5,0.1-5.1,0.6l-5.3-10.8l20.6-6.4v19.3c-2.1,0-4.1-0.4-5.9-1.2C49.8,72.4,47.2,71.2,46,71z M67.2,70.7
		c-1.1,0.3-4.1,1.6-4.5,1.8c-1.4,0.6-2.9,0.9-4.5,1.1V54.4l21.9,7.2L74,71.1C71.8,70.4,69.5,70.2,67.2,70.7z"/>
	<path class="st1" d="M67.2,77c-1.1,0.3-4.1,1.6-4.5,1.8c-3.9,1.6-8.7,1.6-12.5,0c-0.3-0.1-3-1.4-4.2-1.6
		c-4.8-0.7-10.6,3.4-11.5,3.8l0.9,1.9c1-0.4,6.5-4.4,10.3-3.7c0.9,0.2,3.4,1.3,3.7,1.4c4.4,1.8,9.8,1.8,14.2,0
		c0.5-0.2,3.3-1.5,4.2-1.7c3.7-0.9,7.7,1,11.1,2.8l1-1.9C76.1,77.9,71.7,75.9,67.2,77z"/>
</g>
</svg>
