<?xml version="1.0" encoding="utf-8"?>
<!-- Generator: Adobe Illustrator 23.0.3, SVG Export Plug-In . SVG Version: 6.00 Build 0)  -->
<svg version="1.1" id="Camada_1" xmlns="http://www.w3.org/2000/svg" xmlns:xlink="http://www.w3.org/1999/xlink" x="0px" y="0px"
	 width="116px" height="116px" viewBox="0 0 116 116" style="enable-background:new 0 0 116 116;" xml:space="preserve">
<style type="text/css">
	.st0{fill:#FFFFFF;}
	.st1{fill:#076BB6;}
</style>
<circle class="st0" cx="58" cy="58" r="58"/>
<g>
	<path class="st1" d="M83.4,60.5l-8.7-2.9l-5.4-18.1h-5.4v-3.3c0-1.8-1.8-3.3-4-3.3h-5.4c-2.2,0-4,1.4-4,3.3v3.3h-5.8l-5.1,17.8
		l-6.9,2.5l6.5,12.7c-2.2,1.1-4,2.2-4.7,2.2l1.1,1.8c1.1-0.4,6.5-4.4,10.5-3.6c1.1,0,3.3,1.4,3.6,1.4c4.3,1.8,9.8,1.8,14.1,0
		c0.4,0,3.3-1.4,4-1.8c3.6-1.1,7.6,1.1,10.9,2.9l1.1-1.8c-1.4-0.4-2.5-1.5-3.6-1.8L83.4,60.5z M52.6,36.6c0-0.7,0.7-1.4,1.8-1.4h5.4
		c1.1,0,1.8,0.4,1.8,1.4v3.3h-9.1L52.6,36.6L52.6,36.6z M46.4,41.7h21.4l4.7,15.2l-15.2-5.1l-15.2,4.7L46.4,41.7z M46,71.1
		c-1.4-0.4-3.3,0-5.1,0.4l-5.1-10.9L56.2,54v19.2c-2.2,0-4-0.4-5.8-1.4C50,72.5,47.1,71.4,46,71.1z M67.1,70.7
		c-1.1,0.4-4,1.8-4.7,1.8c-1.4,0.4-2.9,1.1-4.7,1.1V54.4l21.8,7.3l-6.2,9.4C71.8,70.3,69.2,70.3,67.1,70.7z"/>
	<path class="st1" d="M67.1,77.2c-1.1,0.4-4,1.8-4.7,1.8c-4,1.8-8.7,1.8-12.3,0c-0.4,0-3.3-1.5-4-1.8c-4.7-0.7-10.5,3.6-11.6,3.6
		l1.1,1.8c1.1-0.4,6.5-4.4,10.5-3.6c1.1,0,3.3,1.4,3.6,1.4c4.3,1.8,9.8,1.8,14.1,0c0.4,0,3.3-1.4,4-1.8c3.6-1.1,7.6,1.1,10.9,2.9
		l1.1-1.8C76.1,77.9,71.8,76.1,67.1,77.2z"/>
</g>
</svg>
