<?xml version="1.0" encoding="utf-8"?>
<!-- Generator: Adobe Illustrator 17.0.0, SVG Export Plug-In . SVG Version: 6.00 Build 0)  -->
<!DOCTYPE svg PUBLIC "-//W3C//DTD SVG 1.1//EN" "http://www.w3.org/Graphics/SVG/1.1/DTD/svg11.dtd">
<svg version="1.1" id="Layer_1" xmlns="http://www.w3.org/2000/svg" xmlns:xlink="http://www.w3.org/1999/xlink" x="0px" y="0px"
	 width="64px" height="64px" viewBox="0 0 64 64" enable-background="new 0 0 64 64" xml:space="preserve">
<g>
	<circle fill="#FFFFFF" cx="32" cy="32" r="32"/>
</g>
<g>
	<g>
		<g>
			<g>
				<path fill="#AA897F" d="M45.434,42.803h-0.013H18.566c-2.41,0.014-4.36,1.964-4.373,4.373c0,0.347,0.281,0.628,0.628,0.628
					h34.359c0.347,0,0.628-0.281,0.628-0.628C49.794,44.767,47.844,42.817,45.434,42.803z"/>
			</g>
		</g>
		<g>
			<g>
				<path fill="#AA897F" d="M49.746,23.594c-0.017-0.178-0.109-0.34-0.252-0.446L32.33,12.29c-0.203-0.126-0.46-0.126-0.663,0
					L14.522,23.12c-0.294,0.184-0.384,0.572-0.2,0.866c0.106,0.169,0.286,0.278,0.485,0.293h34.371
					C49.525,24.246,49.779,23.94,49.746,23.594z"/>
			</g>
		</g>
		<g>
			<g>
				<path fill="#AA897F" d="M17.227,25.218c0.568,1.48,1.888,2.54,3.456,2.774V41.86h4.999V28.037h3.817V41.86h4.989V28.037h3.817
					V41.86h4.999V27.993c1.568-0.234,2.888-1.294,3.456-2.774H17.227L17.227,25.218z"/>
			</g>
		</g>
	</g>
</g>
</svg>
