<?xml version="1.0" encoding="utf-8"?>
<!-- Generator: Adobe Illustrator 17.0.0, SVG Export Plug-In . SVG Version: 6.00 Build 0)  -->
<!DOCTYPE svg PUBLIC "-//W3C//DTD SVG 1.1//EN" "http://www.w3.org/Graphics/SVG/1.1/DTD/svg11.dtd">
<svg version="1.1" id="Layer_1" xmlns="http://www.w3.org/2000/svg" xmlns:xlink="http://www.w3.org/1999/xlink" x="0px" y="0px"
	 width="64px" height="64px" viewBox="0 0 64 64" enable-background="new 0 0 64 64" xml:space="preserve">
<g>
	<circle fill="#FFFFFF" cx="32" cy="32" r="32"/>
</g>
<g>
	<g>
		<g>
			<g>
				<path fill="#FAB745" d="M34.858,34.263v-0.842c0-1.025-0.832-1.856-1.856-1.856c-1.026,0-1.857,0.831-1.857,1.856v0.842
					c0,1.024,0.831,1.856,1.857,1.856C34.026,36.12,34.858,35.288,34.858,34.263z"/>
				<path fill="#FAB745" d="M36.131,35.29c-0.411,1.347-1.651,2.337-3.13,2.337c-1.48,0-2.72-0.989-3.131-2.337H17.08
					c-0.807,0-1.57-0.188-2.254-0.513v8.492c0,1.658,1.357,3.015,3.015,3.015h30.32c1.658,0,3.015-1.357,3.015-3.015v-8.492
					c-0.684,0.326-1.447,0.513-2.254,0.513L36.131,35.29L36.131,35.29z"/>
				<path fill="#FAB745" d="M48.796,20.04h-7.237c-0.436-2.733-2.805-4.83-5.659-4.83H30.1c-2.854,0-5.221,2.097-5.659,4.83h-7.236
					c-1.728,0-3.141,1.357-3.141,3.015v6.959c0,1.664,1.35,3.015,3.015,3.015h12.648c0.043-0.866,0.415-1.648,1.004-2.211
					c0.018-0.017,0.039-0.031,0.058-0.047c0.13-0.12,0.266-0.233,0.415-0.331c0.053-0.035,0.113-0.06,0.168-0.091
					c0.122-0.07,0.243-0.143,0.375-0.197c0.103-0.043,0.215-0.068,0.323-0.1c0.093-0.028,0.182-0.065,0.28-0.084
					c0.211-0.043,0.429-0.066,0.651-0.066c0.223,0,0.44,0.023,0.65,0.066c0.096,0.02,0.186,0.057,0.28,0.084
					c0.109,0.032,0.219,0.057,0.323,0.101c0.131,0.054,0.251,0.127,0.373,0.197c0.055,0.032,0.115,0.057,0.17,0.092
					c0.148,0.097,0.283,0.21,0.414,0.33c0.019,0.017,0.042,0.031,0.059,0.049c0.589,0.564,0.961,1.343,1.004,2.211h12.648
					c1.665,0,3.015-1.35,3.015-3.015v-6.959C51.936,21.397,50.523,20.04,48.796,20.04z M27.345,20.04
					c0.384-1.162,1.468-2.008,2.756-2.008H35.9c1.288,0,2.371,0.846,2.756,2.008H27.345z"/>
			</g>
		</g>
	</g>
</g>
</svg>
