<?xml version="1.0" encoding="utf-8"?>
<!-- Generator: Adobe Illustrator 17.0.0, SVG Export Plug-In . SVG Version: 6.00 Build 0)  -->
<!DOCTYPE svg PUBLIC "-//W3C//DTD SVG 1.1//EN" "http://www.w3.org/Graphics/SVG/1.1/DTD/svg11.dtd">
<svg version="1.1" id="Layer_1" xmlns="http://www.w3.org/2000/svg" xmlns:xlink="http://www.w3.org/1999/xlink" x="0px" y="0px"
	 width="64px" height="64px" viewBox="0 0 64 64" enable-background="new 0 0 64 64" xml:space="preserve">
<g>
	<circle fill="#60B87F" cx="32" cy="32" r="32"/>
	<g>
		<g>
			<g>
				<path fill="#FFFFFF" d="M50.044,19.244H43.2v-4.978c0-0.344-0.279-0.622-0.622-0.622H21.422c-0.344,0-0.622,0.279-0.622,0.622
					v8.711h-6.844c-0.344,0-0.622,0.279-0.622,0.622v25.511c0,0.344,0.279,0.622,0.622,0.622s0.622-0.279,0.622-0.622V24.222H20.8
					v25.511c0,0.344,0.279,0.622,0.622,0.622h21.156c0.344,0,0.622-0.279,0.622-0.622V20.489h6.222v28.622
					c0,0.344,0.279,0.622,0.622,0.622c0.344,0,0.622-0.279,0.622-0.622V19.867C50.667,19.523,50.388,19.244,50.044,19.244z
					 M31.378,49.111h-2.489v-5.6h2.489V49.111z M35.111,49.111h-2.489v-5.6h2.489V49.111z M41.956,49.111h-5.6v-6.222
					c0-0.344-0.279-0.622-0.622-0.622h-7.467c-0.344,0-0.622,0.279-0.622,0.622v6.222h-5.6V14.889h19.911V49.111z"/>
			</g>
		</g>
		<g>
			<g>
				<path fill="#FFFFFF" d="M27.644,16.133h-3.733c-0.344,0-0.622,0.279-0.622,0.622v3.733c0,0.344,0.279,0.622,0.622,0.622h3.733
					c0.344,0,0.622-0.279,0.622-0.622v-3.733C28.267,16.412,27.988,16.133,27.644,16.133z M27.022,19.867h-2.489v-2.489h2.489
					V19.867z"/>
			</g>
		</g>
		<g>
			<g>
				<path fill="#FFFFFF" d="M33.867,16.133h-3.733c-0.344,0-0.622,0.279-0.622,0.622v3.733c0,0.344,0.279,0.622,0.622,0.622h3.733
					c0.344,0,0.622-0.279,0.622-0.622v-3.733C34.489,16.412,34.21,16.133,33.867,16.133z M33.244,19.867h-2.489v-2.489h2.489V19.867
					z"/>
			</g>
		</g>
		<g>
			<g>
				<path fill="#FFFFFF" d="M40.089,16.133h-3.733c-0.344,0-0.622,0.279-0.622,0.622v3.733c0,0.344,0.279,0.622,0.622,0.622h3.733
					c0.344,0,0.622-0.279,0.622-0.622v-3.733C40.711,16.412,40.433,16.133,40.089,16.133z M39.467,19.867h-2.489v-2.489h2.489
					V19.867z"/>
			</g>
		</g>
		<g>
			<g>
				<path fill="#FFFFFF" d="M27.644,22.356h-3.733c-0.344,0-0.622,0.279-0.622,0.622v3.733c0,0.344,0.279,0.622,0.622,0.622h3.733
					c0.344,0,0.622-0.279,0.622-0.622v-3.733C28.267,22.634,27.988,22.356,27.644,22.356z M27.022,26.089h-2.489V23.6h2.489V26.089z
					"/>
			</g>
		</g>
		<g>
			<g>
				<path fill="#FFFFFF" d="M33.867,22.356h-3.733c-0.344,0-0.622,0.279-0.622,0.622v3.733c0,0.344,0.279,0.622,0.622,0.622h3.733
					c0.344,0,0.622-0.279,0.622-0.622v-3.733C34.489,22.634,34.21,22.356,33.867,22.356z M33.244,26.089h-2.489V23.6h2.489V26.089z"
					/>
			</g>
		</g>
		<g>
			<g>
				<path fill="#FFFFFF" d="M40.089,22.356h-3.733c-0.344,0-0.622,0.279-0.622,0.622v3.733c0,0.344,0.279,0.622,0.622,0.622h3.733
					c0.344,0,0.622-0.279,0.622-0.622v-3.733C40.711,22.634,40.433,22.356,40.089,22.356z M39.467,26.089h-2.489V23.6h2.489V26.089z
					"/>
			</g>
		</g>
		<g>
			<g>
				<path fill="#FFFFFF" d="M27.644,28.578h-3.733c-0.344,0-0.622,0.279-0.622,0.622v3.733c0,0.344,0.279,0.622,0.622,0.622h3.733
					c0.344,0,0.622-0.279,0.622-0.622V29.2C28.267,28.856,27.988,28.578,27.644,28.578z M27.022,32.311h-2.489v-2.489h2.489V32.311z
					"/>
			</g>
		</g>
		<g>
			<g>
				<path fill="#FFFFFF" d="M33.867,28.578h-3.733c-0.344,0-0.622,0.279-0.622,0.622v3.733c0,0.344,0.279,0.622,0.622,0.622h3.733
					c0.344,0,0.622-0.279,0.622-0.622V29.2C34.489,28.856,34.21,28.578,33.867,28.578z M33.244,32.311h-2.489v-2.489h2.489V32.311z"
					/>
			</g>
		</g>
		<g>
			<g>
				<path fill="#FFFFFF" d="M40.089,28.578h-3.733c-0.344,0-0.622,0.279-0.622,0.622v3.733c0,0.344,0.279,0.622,0.622,0.622h3.733
					c0.344,0,0.622-0.279,0.622-0.622V29.2C40.711,28.856,40.433,28.578,40.089,28.578z M39.467,32.311h-2.489v-2.489h2.489V32.311z
					"/>
			</g>
		</g>
		<g>
			<g>
				<path fill="#FFFFFF" d="M27.644,34.8h-3.733c-0.344,0-0.622,0.279-0.622,0.622v3.733c0,0.344,0.279,0.622,0.622,0.622h3.733
					c0.344,0,0.622-0.279,0.622-0.622v-3.733C28.267,35.079,27.988,34.8,27.644,34.8z M27.022,38.533h-2.489v-2.489h2.489V38.533z"
					/>
			</g>
		</g>
		<g>
			<g>
				<path fill="#FFFFFF" d="M33.867,34.8h-3.733c-0.344,0-0.622,0.279-0.622,0.622v3.733c0,0.344,0.279,0.622,0.622,0.622h3.733
					c0.344,0,0.622-0.279,0.622-0.622v-3.733C34.489,35.079,34.21,34.8,33.867,34.8z M33.244,38.533h-2.489v-2.489h2.489V38.533z"/>
			</g>
		</g>
		<g>
			<g>
				<path fill="#FFFFFF" d="M40.089,34.8h-3.733c-0.344,0-0.622,0.279-0.622,0.622v3.733c0,0.344,0.279,0.622,0.622,0.622h3.733
					c0.344,0,0.622-0.279,0.622-0.622v-3.733C40.711,35.079,40.433,34.8,40.089,34.8z M39.467,38.533h-2.489v-2.489h2.489V38.533z"
					/>
			</g>
		</g>
		<g>
			<g>
				<path fill="#FFFFFF" d="M17.067,25.467h-0.622c-0.344,0-0.622,0.279-0.622,0.622v0.622c0,0.344,0.279,0.622,0.622,0.622h0.622
					c0.344,0,0.622-0.279,0.622-0.622v-0.622C17.689,25.745,17.41,25.467,17.067,25.467z"/>
			</g>
		</g>
		<g>
			<g>
				<path fill="#FFFFFF" d="M19.556,25.467h-0.622c-0.344,0-0.622,0.279-0.622,0.622v0.622c0,0.344,0.279,0.622,0.622,0.622h0.622
					c0.344,0,0.622-0.279,0.622-0.622v-0.622C20.178,25.745,19.899,25.467,19.556,25.467z"/>
			</g>
		</g>
		<g>
			<g>
				<path fill="#FFFFFF" d="M17.067,27.956h-0.622c-0.344,0-0.622,0.279-0.622,0.622V29.2c0,0.344,0.279,0.622,0.622,0.622h0.622
					c0.344,0,0.622-0.279,0.622-0.622v-0.622C17.689,28.234,17.41,27.956,17.067,27.956z"/>
			</g>
		</g>
		<g>
			<g>
				<path fill="#FFFFFF" d="M19.556,27.956h-0.622c-0.344,0-0.622,0.279-0.622,0.622V29.2c0,0.344,0.279,0.622,0.622,0.622h0.622
					c0.344,0,0.622-0.279,0.622-0.622v-0.622C20.178,28.234,19.899,27.956,19.556,27.956z"/>
			</g>
		</g>
		<g>
			<g>
				<path fill="#FFFFFF" d="M17.067,30.444h-0.622c-0.344,0-0.622,0.279-0.622,0.622v0.622c0,0.344,0.279,0.622,0.622,0.622h0.622
					c0.344,0,0.622-0.279,0.622-0.622v-0.622C17.689,30.723,17.41,30.444,17.067,30.444z"/>
			</g>
		</g>
		<g>
			<g>
				<path fill="#FFFFFF" d="M19.556,30.444h-0.622c-0.344,0-0.622,0.279-0.622,0.622v0.622c0,0.344,0.279,0.622,0.622,0.622h0.622
					c0.344,0,0.622-0.279,0.622-0.622v-0.622C20.178,30.723,19.899,30.444,19.556,30.444z"/>
			</g>
		</g>
		<g>
			<g>
				<path fill="#FFFFFF" d="M17.067,32.933h-0.622c-0.344,0-0.622,0.279-0.622,0.622v0.622c0,0.344,0.279,0.622,0.622,0.622h0.622
					c0.344,0,0.622-0.279,0.622-0.622v-0.622C17.689,33.212,17.41,32.933,17.067,32.933z"/>
			</g>
		</g>
		<g>
			<g>
				<path fill="#FFFFFF" d="M19.556,32.933h-0.622c-0.344,0-0.622,0.279-0.622,0.622v0.622c0,0.344,0.279,0.622,0.622,0.622h0.622
					c0.344,0,0.622-0.279,0.622-0.622v-0.622C20.178,33.212,19.899,32.933,19.556,32.933z"/>
			</g>
		</g>
		<g>
			<g>
				<path fill="#FFFFFF" d="M17.067,35.422h-0.622c-0.344,0-0.622,0.279-0.622,0.622v0.622c0,0.344,0.279,0.622,0.622,0.622h0.622
					c0.344,0,0.622-0.279,0.622-0.622v-0.622C17.689,35.701,17.41,35.422,17.067,35.422z"/>
			</g>
		</g>
		<g>
			<g>
				<path fill="#FFFFFF" d="M19.556,35.422h-0.622c-0.344,0-0.622,0.279-0.622,0.622v0.622c0,0.344,0.279,0.622,0.622,0.622h0.622
					c0.344,0,0.622-0.279,0.622-0.622v-0.622C20.178,35.701,19.899,35.422,19.556,35.422z"/>
			</g>
		</g>
		<g>
			<g>
				<path fill="#FFFFFF" d="M17.067,37.911h-0.622c-0.344,0-0.622,0.279-0.622,0.622v0.622c0,0.344,0.279,0.622,0.622,0.622h0.622
					c0.344,0,0.622-0.279,0.622-0.622v-0.622C17.689,38.19,17.41,37.911,17.067,37.911z"/>
			</g>
		</g>
		<g>
			<g>
				<path fill="#FFFFFF" d="M19.556,37.911h-0.622c-0.344,0-0.622,0.279-0.622,0.622v0.622c0,0.344,0.279,0.622,0.622,0.622h0.622
					c0.344,0,0.622-0.279,0.622-0.622v-0.622C20.178,38.19,19.899,37.911,19.556,37.911z"/>
			</g>
		</g>
		<g>
			<g>
				<path fill="#FFFFFF" d="M17.067,40.4h-0.622c-0.344,0-0.622,0.279-0.622,0.622v0.622c0,0.344,0.279,0.622,0.622,0.622h0.622
					c0.344,0,0.622-0.279,0.622-0.622v-0.622C17.689,40.679,17.41,40.4,17.067,40.4z"/>
			</g>
		</g>
		<g>
			<g>
				<path fill="#FFFFFF" d="M19.556,40.4h-0.622c-0.344,0-0.622,0.279-0.622,0.622v0.622c0,0.344,0.279,0.622,0.622,0.622h0.622
					c0.344,0,0.622-0.279,0.622-0.622v-0.622C20.178,40.679,19.899,40.4,19.556,40.4z"/>
			</g>
		</g>
		<g>
			<g>
				<path fill="#FFFFFF" d="M17.067,42.889h-0.622c-0.344,0-0.622,0.279-0.622,0.622v0.622c0,0.344,0.279,0.622,0.622,0.622h0.622
					c0.344,0,0.622-0.279,0.622-0.622v-0.622C17.689,43.167,17.41,42.889,17.067,42.889z"/>
			</g>
		</g>
		<g>
			<g>
				<path fill="#FFFFFF" d="M19.556,42.889h-0.622c-0.344,0-0.622,0.279-0.622,0.622v0.622c0,0.344,0.279,0.622,0.622,0.622h0.622
					c0.344,0,0.622-0.279,0.622-0.622v-0.622C20.178,43.167,19.899,42.889,19.556,42.889z"/>
			</g>
		</g>
		<g>
			<g>
				<path fill="#FFFFFF" d="M17.067,45.378h-0.622c-0.344,0-0.622,0.279-0.622,0.622v0.622c0,0.344,0.279,0.622,0.622,0.622h0.622
					c0.344,0,0.622-0.279,0.622-0.622V46C17.689,45.656,17.41,45.378,17.067,45.378z"/>
			</g>
		</g>
		<g>
			<g>
				<path fill="#FFFFFF" d="M19.556,45.378h-0.622c-0.344,0-0.622,0.279-0.622,0.622v0.622c0,0.344,0.279,0.622,0.622,0.622h0.622
					c0.344,0,0.622-0.279,0.622-0.622V46C20.178,45.656,19.899,45.378,19.556,45.378z"/>
			</g>
		</g>
		<g>
			<g>
				<path fill="#FFFFFF" d="M47.556,21.733h-2.489c-0.344,0-0.622,0.279-0.622,0.622v2.489c0,0.344,0.279,0.622,0.622,0.622h2.489
					c0.344,0,0.622-0.279,0.622-0.622v-2.489C48.178,22.012,47.899,21.733,47.556,21.733z"/>
			</g>
		</g>
		<g>
			<g>
				<path fill="#FFFFFF" d="M47.556,26.711h-2.489c-0.344,0-0.622,0.279-0.622,0.622v2.489c0,0.344,0.279,0.622,0.622,0.622h2.489
					c0.344,0,0.622-0.279,0.622-0.622v-2.489C48.178,26.99,47.899,26.711,47.556,26.711z"/>
			</g>
		</g>
		<g>
			<g>
				<path fill="#FFFFFF" d="M47.556,31.689h-2.489c-0.344,0-0.622,0.279-0.622,0.622V34.8c0,0.344,0.279,0.622,0.622,0.622h2.489
					c0.344,0,0.622-0.279,0.622-0.622v-2.489C48.178,31.967,47.899,31.689,47.556,31.689z"/>
			</g>
		</g>
		<g>
			<g>
				<path fill="#FFFFFF" d="M47.556,36.667h-2.489c-0.344,0-0.622,0.279-0.622,0.622v2.489c0,0.344,0.279,0.622,0.622,0.622h2.489
					c0.344,0,0.622-0.279,0.622-0.622v-2.489C48.178,36.945,47.899,36.667,47.556,36.667z"/>
			</g>
		</g>
		<g>
			<g>
				<path fill="#FFFFFF" d="M47.556,41.644h-2.489c-0.344,0-0.622,0.279-0.622,0.622v2.489c0,0.344,0.279,0.622,0.622,0.622h2.489
					c0.344,0,0.622-0.279,0.622-0.622v-2.489C48.178,41.923,47.899,41.644,47.556,41.644z"/>
			</g>
		</g>
	</g>
</g>
</svg>
