<?xml version="1.0" encoding="utf-8"?>
<!-- Generator: Adobe Illustrator 23.0.3, SVG Export Plug-In . SVG Version: 6.00 Build 0)  -->
<svg version="1.1" id="Camada_1" xmlns="http://www.w3.org/2000/svg" xmlns:xlink="http://www.w3.org/1999/xlink" x="0px" y="0px"
	 width="116px" height="116px" viewBox="0 0 116 116" style="enable-background:new 0 0 116 116;" xml:space="preserve">
<style type="text/css">
	.st0{fill:#FFFFFF;}
	.st1{fill:#F37D43;}
</style>
<circle class="st0" cx="58" cy="58" r="58"/>
<g>
	<path class="st1" d="M77.2,36.2c-0.4-0.4-8.3-2.9-19.2-2.9s-18.8,2.9-19.2,2.9c-0.4,0.4-1.1,0.7-1.1,1.5v36.2
		c0,0.4,0.4,1.1,0.7,1.5c0.4,0,3.3,1.8,7.6,3.6c5.8,2.5,9.4,4,12,4c2.2,0,6.5-1.4,12-4c4-1.8,7.3-3.6,7.6-3.6s0.7-0.7,0.7-1.5V37.7
		C77.9,37,77.9,36.2,77.2,36.2z M41,38.8c2.2-0.7,8.7-2.2,17.4-2.2c8.3,0,14.9,1.4,17.4,2.2v34.1c-4,2.2-13.8,7.3-17.4,7.3
		s-13-4.7-17.4-7.3C41,72.9,41,38.8,41,38.8z"/>
	<path class="st1" d="M70,69.6V54.7c0-0.7-0.7-1.5-1.4-1.5h-1.4v-4c0-5.1-4-8.7-9.1-8.7s-8.7,4-8.7,8.7v4h-1.5
		c-0.7,0-1.4,0.7-1.4,1.5v14.9c0,0.7,0.7,1.4,1.4,1.4h20.7C68.9,71,70,70.3,70,69.6z M59.4,53.6h-2.2v-4c0-0.7,0.4-1.4,1.4-1.4
		s1.5,0.4,1.5,1.4L59.4,53.6L59.4,53.6z M49.3,56.5h17.8v11.6H49.3V56.5z M52.2,49.3c0-3.3,2.9-5.8,5.8-5.8c2.9,0,5.8,2.9,5.8,5.8v4
		H62v-4c0-2.2-1.8-4-4-4s-4,1.8-4,4v4h-2.2L52.2,49.3L52.2,49.3z"/>
	<path class="st1" d="M58,59.1c-0.7,0-1.4,0.7-1.4,1.4v3.6c0,0.7,0.7,1.4,1.4,1.4s1.4-0.7,1.4-1.4v-3.6C59.4,59.8,58.7,59.1,58,59.1
		z"/>
</g>
</svg>
