<?xml version="1.0" encoding="utf-8"?>
<!-- Generator: Adobe Illustrator 23.0.3, SVG Export Plug-In . SVG Version: 6.00 Build 0)  -->
<svg version="1.1" id="Camada_1" xmlns="http://www.w3.org/2000/svg" xmlns:xlink="http://www.w3.org/1999/xlink" x="0px" y="0px"
	 viewBox="0 0 116 116" style="enable-background:new 0 0 116 116;" xml:space="preserve">
<style type="text/css">
	.st0{fill:#AE70AF;}
	.st1{fill:#FFFFFF;stroke:#FFFFFF;}
</style>
<g transform="translate(-1173 -656)">
	<circle class="st0" cx="1231" cy="714" r="58"/>
	<path class="st1" d="M1258.5,705.5h-3.5v-6.3c0-1.5-1.2-2.7-2.7-2.7h-24.8l-5-7h-18.8c-1.5,0-2.7,1.2-2.7,2.7v43.7h0
		c0,0.6,0.2,1.1,0.5,1.6c0.5,0.6,1.2,1,2,1h44.8c1.2,0,2.2-0.8,2.5-1.8l10.2-28v-0.2C1261,706.8,1259.9,705.5,1258.5,705.5z
		 M1203,692.2c0-0.4,0.3-0.7,0.7-0.7h17.8l5,7h25.8c0.4,0,0.7,0.3,0.7,0.7v6.3h-39.3c-0.1,0-0.3,0-0.4,0c-1,0.2-1.8,0.9-2,1.8
		l-8.3,22.6V692.2z M1248.9,736.1c-0.1,0.2-0.3,0.4-0.5,0.4h-44.8c-0.2,0-0.4-0.1-0.4-0.2c-0.1-0.1-0.2-0.3-0.1-0.4l10.2-28
		c0.1-0.2,0.3-0.4,0.5-0.4h41.3h3.5c0.4,0,0.5,0.5,0.5,0.8L1248.9,736.1z"/>
</g>
<image style="overflow:visible;" width="605" height="474" xlink:href="69B07311.jpg"  transform="matrix(1 0 0 1 -716 -191.7244)">
</image>
</svg>
