<?xml version="1.0" encoding="utf-8"?>
<!-- Generator: Adobe Illustrator 23.0.3, SVG Export Plug-In . SVG Version: 6.00 Build 0)  -->
<svg version="1.1" id="Camada_1" xmlns="http://www.w3.org/2000/svg" xmlns:xlink="http://www.w3.org/1999/xlink" x="0px" y="0px"
	 viewBox="0 0 64 64" style="enable-background:new 0 0 64 64;" xml:space="preserve" width="64px" height="64px">
<style type="text/css">
	.st0{fill:#F37D43;}
	.st1{fill:#FFFFFF;}
</style>
<g>
	<circle class="st0" cx="32" cy="32" r="32"/>
	<g>
		<path class="st1" d="M42.6,19.9c-0.2-0.1-4.6-1.6-10.6-1.6s-10.4,1.5-10.6,1.6c-0.3,0.1-0.5,0.4-0.5,0.8v20c0,0.3,0.2,0.6,0.4,0.7
			c0.1,0,1.9,1.1,4.2,2.1c3.1,1.4,5.3,2.2,6.5,2.2c1.3,0,3.5-0.7,6.5-2.2c2.2-1.1,4.1-2.1,4.2-2.1c0.3-0.1,0.4-0.4,0.4-0.7v-20
			C43.1,20.3,42.9,20,42.6,19.9z M22.5,21.3c1.3-0.4,4.9-1.3,9.5-1.3c4.5,0,8.2,0.9,9.5,1.3v18.9c-2.3,1.3-7.5,3.9-9.5,3.9
			c-2,0-7.2-2.6-9.5-3.9C22.5,40.2,22.5,21.3,22.5,21.3z"/>
		<path class="st1" d="M38.5,38.4v-8.1c0-0.4-0.4-0.8-0.8-0.8h-0.7v-2.3c0-2.7-2.2-4.9-4.9-4.9s-4.9,2.2-4.9,4.9v2.3h-0.7
			c-0.4,0-0.8,0.4-0.8,0.8v8.1c0,0.4,0.4,0.8,0.8,0.8h11.4C38.1,39.2,38.5,38.8,38.5,38.4z M32.7,29.5h-1.3v-2.3
			c0-0.4,0.3-0.7,0.7-0.7c0.4,0,0.7,0.3,0.7,0.7L32.7,29.5L32.7,29.5z M27.1,31.1h9.8v6.5h-9.8V31.1z M28.7,27.1
			c0-1.8,1.5-3.3,3.3-3.3c1.8,0,3.3,1.5,3.3,3.3v2.3h-1.1v-2.3c0-1.3-1-2.3-2.3-2.3c-1.3,0-2.3,1-2.3,2.3v2.3h-1.1V27.1L28.7,27.1z"
			/>
		<path class="st1" d="M32,32.5c-0.4,0-0.8,0.4-0.8,0.8v2c0,0.4,0.4,0.8,0.8,0.8c0.4,0,0.8-0.4,0.8-0.8v-2
			C32.8,32.9,32.4,32.5,32,32.5z"/>
	</g>
</g>
</svg>
