<?xml version="1.0" encoding="utf-8"?>
<!-- Generator: Adobe Illustrator 17.0.0, SVG Export Plug-In . SVG Version: 6.00 Build 0)  -->
<!DOCTYPE svg PUBLIC "-//W3C//DTD SVG 1.1//EN" "http://www.w3.org/Graphics/SVG/1.1/DTD/svg11.dtd">
<svg version="1.1" id="Layer_1" xmlns="http://www.w3.org/2000/svg" xmlns:xlink="http://www.w3.org/1999/xlink" x="0px" y="0px"
	 width="64px" height="64px" viewBox="0 0 64 64" enable-background="new 0 0 64 64" xml:space="preserve">
<g>
	<circle fill="#FFFFFF" cx="32" cy="32" r="32"/>
</g>
<g>
	<g>
		<g>
			<path fill="#39519F" d="M48.015,41.266c0.068,0.52-0.091,0.973-0.475,1.358l-4.514,4.48c-0.204,0.226-0.469,0.419-0.798,0.577
				c-0.328,0.158-0.65,0.26-0.967,0.305c-0.023,0-0.091,0.006-0.204,0.017c-0.113,0.011-0.26,0.017-0.441,0.017
				c-0.43,0-1.126-0.074-2.088-0.221c-0.962-0.147-2.138-0.509-3.53-1.086c-1.392-0.577-2.97-1.443-4.735-2.596
				c-1.765-1.154-3.643-2.738-5.634-4.752c-1.584-1.561-2.896-3.055-3.937-4.48c-1.041-1.426-1.878-2.744-2.512-3.954
				c-0.634-1.211-1.109-2.308-1.426-3.292s-0.532-1.833-0.645-2.546c-0.113-0.713-0.158-1.273-0.136-1.68
				c0.023-0.407,0.034-0.634,0.034-0.679c0.045-0.317,0.147-0.639,0.305-0.967s0.351-0.594,0.577-0.798l4.514-4.514
				c0.317-0.317,0.679-0.475,1.086-0.475c0.294,0,0.554,0.085,0.781,0.255c0.226,0.17,0.419,0.379,0.577,0.628l3.632,6.89
				c0.204,0.362,0.26,0.758,0.17,1.188s-0.283,0.792-0.577,1.086l-1.663,1.663c-0.045,0.045-0.085,0.119-0.119,0.221
				c-0.034,0.102-0.051,0.187-0.051,0.255c0.091,0.475,0.294,1.018,0.611,1.629c0.272,0.543,0.69,1.205,1.256,1.986
				s1.369,1.68,2.41,2.698c1.018,1.041,1.923,1.85,2.715,2.427c0.792,0.577,1.454,1.001,1.986,1.273
				c0.532,0.272,0.939,0.436,1.222,0.492l0.424,0.085c0.045,0,0.119-0.017,0.221-0.051c0.102-0.034,0.175-0.074,0.221-0.119
				l1.935-1.969c0.408-0.362,0.882-0.543,1.426-0.543c0.385,0,0.69,0.068,0.916,0.204h0.034l6.55,3.869
				C47.642,40.44,47.925,40.813,48.015,41.266z"/>
		</g>
	</g>
</g>
</svg>
