<?xml version="1.0" encoding="utf-8"?>
<!-- Generator: Adobe Illustrator 17.0.0, SVG Export Plug-In . SVG Version: 6.00 Build 0)  -->
<!DOCTYPE svg PUBLIC "-//W3C//DTD SVG 1.1//EN" "http://www.w3.org/Graphics/SVG/1.1/DTD/svg11.dtd">
<svg version="1.1" id="Layer_1" xmlns="http://www.w3.org/2000/svg" xmlns:xlink="http://www.w3.org/1999/xlink" x="0px" y="0px"
	 width="64px" height="64px" viewBox="0 0 64 64" enable-background="new 0 0 64 64" xml:space="preserve">
<circle fill="#FFFFFF" cx="32" cy="32" r="32"/>
<g>
	<g>
		<path fill="#F18966" d="M51.772,25.877H48.74c-0.231,0-0.453,0.089-0.619,0.249l-0.647,0.62c-1.091-2.524-2.656-5.02-4.769-7.604
			c-1.143-1.396-2.832-2.197-4.636-2.197H25.932c-1.804,0-3.494,0.801-4.636,2.197c-2.18,2.665-3.714,5.101-4.779,7.595
			l-0.638-0.611c-0.167-0.16-0.389-0.249-0.62-0.249h-3.031c-0.495,0-0.895,0.401-0.895,0.895v2.073
			c0,0.473,0.367,0.864,0.839,0.894l3.116,0.196c-0.471,1.376-0.838,3.426-0.838,6.317c0,2.508,0.501,4.157,1.373,5.225v4.829
			c0,0.414,0.336,0.75,0.75,0.75h3.449c0.414,0,0.75-0.336,0.75-0.75v-2.999h22.457v2.999c0,0.414,0.336,0.75,0.75,0.75h3.449
			c0.414,0,0.75-0.336,0.75-0.75v-4.829c0.872-1.067,1.373-2.716,1.373-5.225c0-2.891-0.368-4.941-0.838-6.317l3.116-0.196
			c0.472-0.03,0.839-0.421,0.839-0.894v-2.073C52.667,26.278,52.266,25.877,51.772,25.877z M23.855,21.235
			c0.512-0.625,1.269-0.984,2.077-0.984h12.137c0.808,0,1.565,0.359,2.077,0.984c1.479,1.808,2.646,3.537,3.549,5.261L20.285,26.5
			C21.168,24.816,22.342,23.084,23.855,21.235z M21.304,39.639c-1.717,0-3.108-0.561-3.108-1.921c0-1.36,0.505-2.463,2.221-2.463
			s3.995,1.103,3.995,2.463C24.412,39.078,23.02,39.639,21.304,39.639z M35.258,39.355h-6.516c-0.982,0-1.781-0.799-1.781-1.781
			c0-0.275,0.223-0.499,0.499-0.499h9.081c0.276,0,0.499,0.223,0.499,0.499C37.039,38.556,36.24,39.355,35.258,39.355z
			 M42.696,39.639c-1.717,0-3.108-0.561-3.108-1.921c0-1.36,2.278-2.463,3.995-2.463c1.717,0,2.222,1.103,2.222,2.463
			C45.804,39.078,44.413,39.639,42.696,39.639z"/>
	</g>
</g>
</svg>
