<svg xmlns="http://www.w3.org/2000/svg" viewBox="0 0 181.74 65.64"><defs><style>.cls-1{fill:none;}.cls-1,.cls-2{stroke:#51aacc;stroke-miterlimit:10;stroke-width:1.64px;}.cls-2{fill:#fff;}.cls-3{fill:#f2b336;}.cls-4{fill:#51aacc;}</style></defs><title>logo-conexao</title><g id="Camada_2" data-name="Camada 2"><g id="Camada_1-2" data-name="Camada 1"><path class="cls-1" d="M29.56,37.52h-.81l-.24-.05-.07,0h-.08l-.07,0-.22-.07-.07,0-.07,0-.08,0L27.43,37l-.06,0a1.71,1.71,0,0,1-.23-.13l-.1,0-.12-.08-.09-.06h0l-.12-.09-.12-.09-.11-.09h0l-.09-.08,0,0-.06-.06-.06,0-.1-.1L26,36l0,0a.94.94,0,0,1-.1-.1l-.1-.12-.09-.12-.1-.12-.08-.11h0l-.08-.13,0,0a4.81,4.81,0,0,1-.7-2.4,4,4,0,0,1,.7-2.4,2.92,2.92,0,0,1,.24-.37l.06-.09.07-.09.05-.07.09-.1.09-.1.07-.08.05,0,.09-.09.08-.08,0,0a.27.27,0,0,1,.08-.07l0,0a.27.27,0,0,0,.08-.07l0,0,.1-.07h0l.09-.06,0,0,.06,0,.07,0,0,0,.1-.07.48-.23.07,0,.15-.06.07,0,.07,0,.08,0,.07,0,.15,0,.08,0,.08,0h.07l.08,0h.08l.08,0h.07c.11,0,.22,0,.33,0h.73l.26,0h.06a5,5,0,0,1,.67.14l.07,0,.22.08.08,0,.06,0,.22.09.06,0a2.21,2.21,0,0,1,.34.18l.11.06,0,0,.08,0,0,0,.07,0,.05,0,.07.05.07.05,0,0,.07.06,0,0,.07.06,0,0,.07.07,0,0,.09.08,0,0a.46.46,0,0,1,.07.07l0,.05.06.06c.1.11.2.22.29.34l.09.12.18.26a4.81,4.81,0,0,1,.7,2.4,4,4,0,0,1-.7,2.4l-.08.13-.08.13-.08.12c-.09.12-.18.24-.28.35l-.1.11-.11.11a3.89,3.89,0,0,1-.43.38l-.1.07-.17.12-.12.08-.13.07-.06,0-.34.17-.07,0-.29.11-.07,0-.23.07-.07,0-.43.09h-.82ZM5.62,23.72v18.6a4.38,4.38,0,0,1,2.27.58l0,0a4.44,4.44,0,0,1,1.67,1.66l0,0a4.81,4.81,0,0,1,.7,2.4H49a4.83,4.83,0,0,1,1.18-3,4.75,4.75,0,0,1,3.42-1.67h.16V23.58a4.67,4.67,0,0,1-4.18-7,2.68,2.68,0,0,1,.18-.28l-15.8-8.9-.08.17a5.15,5.15,0,0,1-1.62,1.93l-.07,0a2.58,2.58,0,0,1-.32.18m-2.26.58h-.05a4.75,4.75,0,0,1-2.5-.8,3.92,3.92,0,0,1-1.7-2.1l-.2.11L9.52,16.32a4.38,4.38,0,0,1,.8,2.5,5.45,5.45,0,0,1-.5,2.2l-.09.16a4.77,4.77,0,0,1-.81,1v0"/><path class="cls-1" d="M25.66,30.05l.06-.09.07-.09.05-.07.09-.1.09-.1.07-.08.05,0,.09-.09.08-.08,0,0a.27.27,0,0,1,.08-.07l0,0a.27.27,0,0,0,.08-.07l0,0,.1-.07h0l.09-.06,0,0,.06,0,.07,0,0,0,.1-.07.48-.23.07,0,.15-.06.07,0,.07,0,.08,0,.07,0,.15,0,.08,0,.08,0h.07l.08,0h.08l.08,0h.07c.11,0,.22,0,.33,0h.73l.26,0h.06a5,5,0,0,1,.67.14l.07,0,.22.08.08,0,.06,0,.22.09.06,0a2.21,2.21,0,0,1,.34.18l.11.06,0,0,.08,0,0,0,.07,0,.05,0,.07.05.07.05,0,0,.07.06,0,0,.07.06,0,0,.07.07,0,0,.09.08,0,0a.46.46,0,0,1,.07.07l0,.05.06.06c.1.11.2.22.29.34l.09.12.18.26a4.81,4.81,0,0,1,.7,2.4,4,4,0,0,1-.7,2.4l-.08.13-.08.13-.08.12c-.09.12-.18.24-.28.35l-.1.11-.11.11a3.89,3.89,0,0,1-.43.38l-.1.07-.17.12-.12.08-.13.07-.06,0-.34.17-.07,0-.29.11-.07,0-.23.07-.07,0-.43.09H28.75l-.24-.05-.07,0h-.08l-.07,0-.22-.07-.07,0-.07,0-.08,0L27.43,37l-.06,0a1.71,1.71,0,0,1-.23-.13l-.1,0-.12-.08-.09-.06h0l-.12-.09-.12-.09-.11-.09h0l-.09-.08,0,0-.06-.06-.06,0-.1-.1L26,36l0,0a.94.94,0,0,1-.1-.1l-.1-.12-.09-.12-.1-.12-.08-.11h0l-.08-.13,0,0a4.81,4.81,0,0,1-.7-2.4,4,4,0,0,1,.7-2.4A2.92,2.92,0,0,1,25.66,30.05Zm-15.44,17v0h38.7V47a3.91,3.91,0,0,1,.7-2.3,4.83,4.83,0,0,1,.76-1l0,0a4.37,4.37,0,0,1,.91-.69v0h0l0-.05L41.42,25.82,32.15,9.56l0,0v0a4.72,4.72,0,0,1-2.55.8h-.05m-2.67-.68L17.62,25.82,7.89,42.9l0,0"/><path class="cls-1" d="M48.92,47a4.65,4.65,0,0,0,.6,2.3l-15.6,8.8a4.7,4.7,0,0,0-8.6,0l-15.7-8.8a4.65,4.65,0,0,0,.6-2.3,4,4,0,0,0-.7-2.4l16-9.4a4.62,4.62,0,0,0,4.1,2.3,4.87,4.87,0,0,0,4.1-2.3l15.9,9.4A4.2,4.2,0,0,0,48.92,47Z"/><path class="cls-1" d="M33.84,7.59l15.4,8.67a.34.34,0,0,1,.16.41A15.59,15.59,0,0,0,49,18.2a5.43,5.43,0,0,0,.45,2.92l-8,4.7-7.8,4.6a4.61,4.61,0,0,0-3.86-2.3h-.57a4.88,4.88,0,0,0-3.77,2.29l-7.8-4.6L9.73,21.18l0,0"/><path class="cls-1" d="M9.41,16.37,25.12,7.52h0a5.14,5.14,0,0,0,1.7,2.09l0,0a4.66,4.66,0,0,0,2.57.78h.1a4.48,4.48,0,0,0,2.31-.68L32,9.62l.11-.08"/><polyline class="cls-1" points="29.52 55.42 29.52 47.02 29.52 37.52"/><line class="cls-1" x1="29.52" y1="28.12" x2="29.52" y2="10.22"/><path class="cls-2" d="M33.84,7.59l.08-.17a4.06,4.06,0,0,0,.4-1.9,4.76,4.76,0,0,0-4.7-4.7,4.69,4.69,0,0,0-4.7,4.7,5.85,5.85,0,0,0,.4,1.9A3.92,3.92,0,0,0,27,9.52a4.75,4.75,0,0,0,2.5.8h.05a4.72,4.72,0,0,0,2.55-.8v0"/><path class="cls-1" d="M33.84,7.59a5.15,5.15,0,0,1-1.62,1.93l-.07,0a2.58,2.58,0,0,1-.32.18"/><path class="cls-1" d="M29.57,10.32a4.72,4.72,0,0,0,2.55-.8v0"/><path class="cls-3" d="M36.19,32.82a5.49,5.49,0,0,1-1,3.33,6.41,6.41,0,0,1-5.69,3.2,6.75,6.75,0,0,1-5.69-3.2,6.63,6.63,0,0,1-1-3.33,5.49,5.49,0,0,1,1-3.33,6.41,6.41,0,0,1,5.69-3.2,6.75,6.75,0,0,1,5.69,3.2A6.63,6.63,0,0,1,36.19,32.82Z"/><path class="cls-1" d="M34.32,60.12a4.7,4.7,0,1,1-9.4,0,5.85,5.85,0,0,1,.4-1.9,4.7,4.7,0,0,1,8.6,0A5.33,5.33,0,0,1,34.32,60.12Z"/><path class="cls-1" d="M58.32,18.92a4.7,4.7,0,0,1-8.9,2.1,5.09,5.09,0,0,1-.5-2.2,4.38,4.38,0,0,1,.8-2.5,4.71,4.71,0,0,1,4-2.2A4.76,4.76,0,0,1,58.32,18.92Z"/><path class="cls-1" d="M9.7,21.16l0,0a5.45,5.45,0,0,0,.5-2.2,4,4,0,0,0-.7-2.4l-.11-.15a4.81,4.81,0,0,0-3.89-2.05,4.7,4.7,0,1,0,0,9.4h.1a4.8,4.8,0,0,0,3.29-1.48v0"/><path class="cls-1" d="M58.32,47a4.7,4.7,0,0,1-8.8,2.3,4.65,4.65,0,0,1-.6-2.3,4,4,0,0,1,.7-2.4,4.56,4.56,0,0,1,4-2.3A4.69,4.69,0,0,1,58.32,47Z"/><path class="cls-1" d="M10.22,47a4.65,4.65,0,0,1-.6,2.3,4.7,4.7,0,1,1-4.1-7,4.38,4.38,0,0,1,2.3.6,4.62,4.62,0,0,1,1.7,1.7A5.13,5.13,0,0,1,10.22,47Z"/><path class="cls-4" d="M85.49,26.52l-1,1.09a4.33,4.33,0,0,0-3.24-1.24c-4.6,0-6.08,5.2-6.08,8.71,0,3.24,1.57,4.75,4,4.75A6.65,6.65,0,0,0,83,38.5l.76,1.24a7.66,7.66,0,0,1-4.69,1.63c-3.6,0-5.74-2.3-5.74-6.38s2.08-10.1,7.86-10.1A5.75,5.75,0,0,1,85.49,26.52Z"/><path class="cls-4" d="M100.8,31.24c0,3.9-1.91,10.13-7.9,10.13-3.69,0-5.74-2.42-5.74-6.41s2-10.07,7.92-10.07C98.71,24.89,100.8,27.22,100.8,31.24ZM89,35.11c0,3.18,1.42,4.78,4,4.78,4.63,0,6-5.38,6-8.77,0-3.18-1.39-4.78-3.93-4.78C90.33,26.34,89,31.82,89,35.11Z"/><path class="cls-4" d="M117.58,29.79,116,41h-1.75l1.57-11.1c.36-2.63-.51-3.57-2.39-3.57-2.18,0-4.17,2.3-5.72,5.2L106.39,41h-1.72l2.24-15.82h1.45L108,29.15c1.57-2.63,3.72-4.26,6-4.26C116.74,24.89,118,26.73,117.58,29.79Z"/><path class="cls-4" d="M123.75,34.81V35c0,3.45,1.67,4.87,4.06,4.87a7.23,7.23,0,0,0,4.47-1.6l.79,1.24a8.87,8.87,0,0,1-5.38,1.87c-3.63,0-5.75-2.3-5.75-6.35,0-4.41,2.3-10.13,7.95-10.13,3.09,0,4.81,1.66,4.81,3.81C134.7,32.75,130.2,34.29,123.75,34.81Zm.1-1.39c5.89-.46,9-1.76,9-4.66,0-1.24-.88-2.42-3-2.42C126,26.34,124.27,30.06,123.85,33.42Z"/><path class="cls-4" d="M147.92,41h-2l-3.56-7.32L136.76,41h-2l6.74-8.5-3.78-7.32h1.93l3,6.29,4.81-6.29h2l-5.89,7.47Z"/><path class="cls-4" d="M164.4,26.19l-1.72,11.4c0,.36-.06.7-.06.94a1.44,1.44,0,0,0,1,1.6l-.52,1.24c-1.3-.27-2.11-.94-2.11-2.87a6,6,0,0,1-4.87,2.87c-3.18,0-5-2.36-5-6.14,0-4.26,2.18-10.34,8.13-10.34A10.33,10.33,0,0,1,164.4,26.19Zm-11.43,9c0,3.09,1.27,4.69,3.45,4.69,1.94,0,3.39-1.3,4.72-3.36L162.56,27a7,7,0,0,0-3.24-.73C154.67,26.31,153,31.57,153,35.23Zm5.6-15.72c-.85,0-1.27.42-1.94,1.27l-1-.67a3.7,3.7,0,0,1,3-2c1.45,0,2.18,1.36,3.32,1.36.67,0,1.21-.43,1.91-1.36l1,.66c-.94,1.48-1.91,2.12-2.84,2.12C160.26,20.9,159.6,19.51,158.57,19.51Z"/><path class="cls-4" d="M181.74,31.24c0,3.9-1.91,10.13-7.9,10.13-3.69,0-5.74-2.42-5.74-6.41s2-10.07,7.92-10.07C179.65,24.89,181.74,27.22,181.74,31.24Zm-11.83,3.87c0,3.18,1.42,4.78,4,4.78,4.63,0,6-5.38,6-8.77,0-3.18-1.39-4.78-3.93-4.78C171.27,26.34,169.91,31.82,169.91,35.11Z"/></g></g></svg>