<?xml version="1.0" encoding="utf-8"?>
<!-- Generator: Adobe Illustrator 22.1.0, SVG Export Plug-In . SVG Version: 6.00 Build 0)  -->
<svg version="1.1" id="Logo" xmlns="http://www.w3.org/2000/svg" xmlns:xlink="http://www.w3.org/1999/xlink" x="0px" y="0px"
	 viewBox="0 0 595.3 340.2" style="enable-background:new 0 0 595.3 340.2;" xml:space="preserve">
<style type="text/css">
	.st0{fill:#467AAE;}
	.st1{fill:#A6A6A7;}
</style>
<g>
	<g>
		<path class="st0" d="M182.6,138.5V69.6l-51,66.7c-2.4,3-5.8,4.4-10.3,4.4c-4.5,0-7.9-1.5-10.3-4.4L60.2,69.6v68.8H39.1V41.1
			c0-3.3,1.2-5.7,3.6-7.2c2.4-1.5,5.4-2.3,9-2.3c2.8,0,5,0.4,6.6,1.1c1.6,0.8,3.1,2,4.4,3.8l59,78.3l59.5-78.3
			c1.3-1.7,2.7-3,4.2-3.8c1.5-0.8,3.5-1.1,6.2-1.1c3.6,0,6.6,0.8,9,2.3c2.4,1.5,3.6,3.9,3.6,7.2v97.3H182.6z"/>
		<path class="st0" d="M245.2,108.6v29.9h-23.3V33.9h83.7c7.5,0,13.7,0.6,18.7,1.8c5,1.2,9,3.1,12.1,5.8c3.1,2.7,5.2,6.2,6.5,10.5
			c1.3,4.3,1.9,9.5,1.9,15.6v9c0,6.2-0.6,11.4-1.8,15.5c-1.2,4.1-3.3,7.4-6.4,9.8c-3,2.5-7,4.2-12,5.1c-5,1-11.3,1.5-19,1.5H245.2z
			 M321.5,68.6c0-5.6-1.2-9.4-3.6-11.5c-2.4-2-6.7-3.1-12.9-3.1h-59.8v35.7h60.1c6.1,0,10.4-0.9,12.7-2.8c2.3-1.9,3.5-5.6,3.5-11.1
			V68.6z"/>
		<path class="st1" d="M443.5,138.5l-61.1-38v38h-23.1V33.9H441c7.4,0,13.6,0.5,18.8,1.4c5.2,0.9,9.5,2.6,12.8,4.9
			c3.3,2.4,5.7,5.6,7.3,9.7c1.5,4.1,2.3,9.2,2.3,15.5v7.2c0,6-0.8,11-2.5,14.9c-1.6,3.9-4.2,7-7.6,9.3c-3.4,2.3-7.7,3.9-12.9,4.8
			c-5.2,0.9-11.4,1.4-18.5,1.4h-18.4l61.3,35.4H443.5z M458.9,66.6c0-2.8-0.3-5-0.9-6.7c-0.6-1.7-1.6-3.1-3.1-4
			c-1.4-0.9-3.4-1.5-6-1.8c-2.6-0.3-5.7-0.5-9.5-0.5h-57.2v31.9h57.2c3.8,0,6.9-0.2,9.4-0.5c2.5-0.3,4.5-0.9,6-1.8
			c1.5-0.9,2.5-2.2,3.1-4c0.6-1.7,0.9-4,0.9-6.9V66.6z"/>
		<path class="st1" d="M492,138.5v-19.9h25.3c3.8,0,6.9-0.3,9.3-0.9c2.4-0.6,4.3-1.6,5.7-3c1.4-1.4,2.3-3.1,2.9-5.3
			c0.6-2.1,0.8-4.8,0.8-7.8V33.9h23.3v68.7c0,6.6-0.6,12.2-1.9,16.8c-1.3,4.5-3.4,8.2-6.5,11c-3.1,2.8-7.2,4.9-12.3,6.1
			c-5.2,1.3-11.6,1.9-19.4,1.9H492z"/>
	</g>
	<g>
		<g>
			<path class="st0" d="M43.4,228.3c-0.9-0.6-1.7-1.7-2.2-3.1c-0.6-1.4-0.9-2.8-1.2-4.2s-0.4-2.7-0.4-3.9c0-1.2,0-2,0-2.5
				c1.7,1.7,4.1,2.9,7.2,3.4c3.1,0.6,5.9,0.8,8.6,0.8c1.9,0,3.5-0.1,4.7-0.2c1.3-0.2,1.8-0.2,1.7-0.2c3.5-6.8,7.5-12.8,12.3-18.2
				c4.7-5.3,9.7-9.9,15.1-13.6c5.3-3.7,10.9-6.5,16.5-8.5c5.7-2,11.2-2.9,16.5-2.9c7.7,0,14.1,1.2,19.1,3.7c5,2.4,7.7,5.5,8,9.1
				c0,0.6-0.1,1.1-0.2,1.4l-0.9-0.5l0.7,0.5c-3.3,5.5-5.8,10.3-7.4,14.3c-1.7,4-2.8,7.4-3.4,10.1c-0.6,2.8-1,4.9-1.2,6.5
				c-0.2,1.6-0.5,2.6-0.9,3.1l-0.5,0.2c-3.6-0.3-6.4-1.1-8.5-2.5c-2-1.3-3.5-2.8-4.5-4.4c-1.1-1.7-1.8-3.8-2.1-6.1
				c0-1.1,0.5-3.4,1.4-6.8c0.9-3.5,2.9-7.7,5.9-12.7c-1.9-0.5-3.9-0.7-5.9-0.7c-3.8,0-7.7,0.7-11.7,2.1s-8,3.4-12,5.9
				c-4,2.5-7.9,5.5-11.7,9c-3.8,3.5-7.2,7.2-10.4,11.3c4.9,0.5,9.9,1.1,15.2,2c5.3,0.9,10.1,1.7,14.6,2.6c4.5,0.9,8.2,1.6,11.2,2.1
				c3,0.6,4.6,0.8,4.7,0.8h0.2c0.3,0.3,0.5,0.9,0.5,1.7c0,0.6-0.2,1.1-0.7,1.4l-0.2,0.2h-1.7c-1.1,0.2-3.5,0.3-7.1,0.4
				c-3.6,0.1-7.9,0.2-12.7,0.2c-4.9,0.1-10.1,0.2-15.6,0.2c-5.5,0.1-10.7,0.1-15.6,0.1c-1.9,3.8-3.4,7.7-4.5,11.7
				c-1.1,4-1.7,8.1-1.7,12.1c0,7.2,1.9,14.2,5.7,20.8c2.8,2,5.7,3.5,8.6,4.4c2.9,0.9,5.8,1.3,8.6,1.3c3.9,0,7.8-0.7,11.7-2.1
				c3.9-1.4,7.4-3.1,10.7-5.1c3.3-2,6.3-4.1,9-6.4c2.7-2.3,5-4.4,6.8-6.3c4.7-4.7,8-8.6,9.8-11.7c1.8-3.1,3-5.5,3.5-7.3
				c0.5-1.8,0.8-3.1,0.8-3.9c0-0.8,0.5-1.2,1.7-1.2c0.5,0,0.8,0.2,0.9,0.5c0.2,0.3,0.2,0.6,0.2,0.9c0,1.1-0.5,3-1.4,5.7
				c-0.9,2.7-2.4,5.7-4.4,9.2c-2,3.5-4.6,7.2-7.8,11.1c-3.2,3.9-7.1,7.7-11.7,11.3c-3.6,2.8-8.3,5.7-13.9,8.7
				c-5.7,3-11.9,4.5-18.6,4.5c-9.1,0-16.6-3.1-22.5-9.3s-8.8-14.4-8.8-24.6c0-4.2,0.5-8.4,1.4-12.5c0.9-4.1,2.1-8,3.5-11.8
				c-4.9,0-8.3-0.2-10.3-0.6C44.4,229.5,43.4,228.9,43.4,228.3z"/>
			<path class="st0" d="M179.7,272.2c-1.3,2.5-2.6,4.1-3.9,4.6c-1.3,0.5-2.3,0.8-2.9,0.8c-3.8,0-6.3-1.4-7.7-4.2
				c-1.3-2.8-2-6.6-2-11.3c0-3.3,0.3-6.7,0.9-10.3c0.6-3.5,1.5-7,2.6-10.5c-2.7,5.8-5.3,11.6-8,17.5c-2.7,5.8-4.7,10.2-6.1,13.2
				c-0.9,2.2-2.2,3.7-3.7,4.4c-1.5,0.7-2.6,1.1-3.2,1.1c-3.6,0-6.1-1.3-7.4-3.8c-1.3-2.5-2-6.2-2-11.1c0-6,0.8-12,2.5-18
				c1.7-6.1,3.5-11.6,5.7-16.5c2.1-5,4-9,5.8-12.1c1.7-3.1,2.7-4.7,3.1-4.7c1.3,0,2.7,0.3,4.2,0.9c1.6,0.6,3.1,1.3,4.7,2.1
				c1.7,0.8,3.5,1.7,5.4,2.8c-1.3,2.5-3,5.7-5.3,9.6c-2.3,3.9-4.5,8-6.7,12.4c-2.2,4.4-4.2,8.9-5.9,13.4c-1.7,4.6-2.6,8.8-2.6,12.7
				c7.4-13.5,13.6-24.2,18.6-32.1c5-7.9,8.5-12.7,10.4-14.6H176c0.9-1.6,1.8-3.1,2.6-4.7c0.8-1.3,1.5-2.6,2-3.9
				c0.5-1.3,1-2.4,1.3-3.2c0.2,0,0.8,0.4,2,1.1c1.2,0.7,2.4,1.7,3.7,2.8c1.3,1.2,2.4,2.4,3.5,3.8c1.1,1.3,1.7,2.7,1.7,4.1
				c0,0.8-0.1,1.6-0.2,2.5c-0.2,0.9-0.9,2.4-2.1,4.6h-0.2c-1.4,2.7-3,5.6-4.8,8.7c-1.8,3.1-3.5,6.4-5.2,9.8c-1.7,3.4-3,6.9-4.1,10.6
				c-1.1,3.7-1.7,7.3-1.7,10.7c6.6-11.9,12.1-21.1,16.4-27.5c4.3-6.4,7.9-11.3,10.6-14.9c2.7-3.5,4.9-6.3,6.4-8.4
				c1.5-2,2.6-4.7,3.4-8c2.4,1.4,4.2,2.7,5.4,3.8c1.3,1.1,2.4,2.3,3.5,3.7c1.1,1.3,1.7,2.6,1.7,3.9c0,0.6,0,1.3,0,1.9
				c0,0.6-0.1,1.3-0.2,2.1c-1.3,2.5-2.9,5.5-4.8,9c-2,3.5-3.9,7.1-5.8,10.8c-1.9,3.8-3.5,7.6-4.8,11.4c-1.3,3.9-2,7.5-2,11
				c0,1.7,0.2,3.2,0.6,4.4c0.4,1.2,1.2,1.8,2.5,1.8c2.2,0,5-1.6,8.3-4.8c3.3-3.2,6.5-8.5,9.7-15.7l0.5-0.2c0.6,0,1.2,0.2,1.7,0.7
				l0.5,0.5c0,0.3-0.5,1.9-1.5,4.7c-1,2.8-2.5,5.9-4.5,9.1c-2,3.2-4.3,6.2-7.1,8.8c-2.8,2.7-5.9,4-9.3,4c-3,0-5.8-1.5-8.4-4.5
				c-2.6-3-3.9-7.2-3.9-12.7c0-4.1,0.6-8.5,1.9-13.2c1.3-4.7,2.7-9.2,4.2-13.4c-1.7,3.1-3.7,6.6-5.8,10.5c-2.1,3.9-4.1,7.6-6,11.3
				c-1.9,3.7-3.5,7.1-5,10.1C180.9,268.5,180,270.8,179.7,272.2z"/>
			<path class="st0" d="M362,184.7c0.8,1.9,0.8,4,0.1,6.5c-0.7,2.4-1.7,4.8-2.9,7.2c-0.8,1.7-2,4.4-3.5,7.9c-1.6,3.5-3.3,7.5-5.2,12
				c-1.9,4.5-3.9,9.3-5.9,14.4c-2,5.1-4,10.1-5.8,15c-1.8,4.9-3.5,9.5-5,13.8c-1.5,4.3-2.6,7.9-3.4,10.7c0,0.2-0.4,1.6-1.2,4.4
				c-0.8,2.7-1.2,6.6-1.2,11.4c-0.3,0-1-0.2-2-0.5c-1-0.3-2.2-0.8-3.4-1.5c-1.3-0.7-2.4-1.7-3.3-2.9c-0.9-1.3-1.4-3-1.4-5.2
				s0.5-5.6,1.7-10.3c1.1-4.6,2.6-10.3,4.5-16.9c-4.2,4.2-8.3,8.3-12,12.1c-3.8,3.9-7,7.2-9.8,9.9c-2.8,2.8-5,4.9-6.7,6.4
				c-1.7,1.5-2.7,2.1-2.8,1.8l-0.2,0.2c-0.2,0-0.2,0-0.2-0.1c0-0.1-0.1-0.1-0.2-0.1c-0.2,0.2-0.4,0.2-0.7,0.2
				c-0.9,0-1.9-1.7-2.7-5.1c-0.9-3.4-1.7-7.6-2.4-12.7c-0.7-5.1-1.3-10.8-1.7-17c-0.4-6.2-0.6-12.1-0.6-17.8
				c-2.8,6.1-5.6,12.3-8.4,18.4c-2.8,6.1-4.8,10.8-6,14.2c-0.6,1.4-1.2,2.9-1.7,4.5c-1.1,3-1.7,5.8-1.7,8.5c0,0.6,0.2,1.6,0.5,2.8
				c-0.3,0-1-0.2-2-0.5c-1-0.3-2.1-0.8-3.3-1.5c-1.2-0.7-2.2-1.7-3.1-3.1c-0.9-1.3-1.3-3.1-1.3-5.3c0-5.2,1.1-11.4,3.3-18.6
				c2.2-7.2,4.7-14.3,7.4-21.1c2.7-6.8,5.4-12.9,7.9-18.3c2.5-5.3,4.2-8.9,5-10.6l1.7-5c0.5-1.4,0.9-2.8,1.3-4.2
				c0.4-1.4,0.6-2.6,0.6-3.5c0.6,0.8,1.7,1.3,3.3,1.7c1.6,0.3,3.2,1,4.8,2c1.7,1,3.1,2.6,4.2,4.7s1.8,5.3,1.8,9.6
				c0,4.6-0.4,9.4-1.1,14.4c-0.7,5-1.5,10-2.4,15c-0.9,5-1.7,9.9-2.4,14.7c-0.7,4.9-1.1,9.5-1.1,13.9c0,3.5,0.1,6.5,0.4,9.2
				c0.2,2.7,0.5,4.9,0.8,6.6c1.4-1.6,3.3-3.7,5.8-6.4c2.4-2.7,5.1-5.8,7.9-9.3c2.8-3.5,5.7-7.4,8.7-11.7c3-4.2,5.7-8.7,8.3-13.4
				c2.7-4.6,5.1-9.1,7.4-13.7c2.3-4.6,4.4-8.9,6.3-13c1.9-4.1,3.6-7.9,5.1-11.3c1.5-3.5,2.8-6.4,3.9-9l1.7-5c0.9-3,1.6-5.6,1.9-7.8
				c1.9,0.8,3.7,1.6,5.4,2.4c1.4,0.8,2.8,1.7,4.2,2.6S361.6,183.4,362,184.7z"/>
			<path class="st0" d="M413.9,250.7c-0.2,0.5-0.7,2.2-1.8,5.1c-1,2.9-2.5,5.9-4.4,9.1c-1.9,3.1-4.2,6-6.8,8.6
				c-2.7,2.6-5.7,3.9-9.2,3.9c-2,0-4-0.6-5.8-1.8c-1.8-1.2-3.6-3.7-5.3-7.4c-0.6,0.8-1.4,1.7-2.2,2.8c-0.9,1.1-2,2.1-3.3,3.1
				c-1.3,0.9-2.9,1.7-4.8,2.4c-1.9,0.6-4.2,0.9-6.8,0.9c-3.6,0-6.6-0.9-8.8-2.6c-2.3-1.7-4.1-3.8-5.3-6.3c-1.3-2.4-2.1-5-2.6-7.8
				c-0.5-2.7-0.7-5.1-0.7-7c0-3.9,0.8-8.2,2.5-12.9c1.7-4.6,4-9,7-13c3-4,6.6-7.3,10.9-10c4.2-2.7,9-4,14.2-4c3.1,0,5.5,0.4,7.1,1.2
				c1.6,0.8,3.2,1.7,5,2.6c0.5-0.9,0.9-1.9,1.3-2.8c0.4-0.9,0.7-1.7,0.8-2.4c0.2,0,0.8,0.4,1.9,1.1c1.1,0.7,2.3,1.7,3.7,2.8
				c1.3,1.2,2.6,2.5,3.7,3.9c1.1,1.4,1.7,2.8,1.7,4c0,0.8-0.2,1.8-0.5,3.1c-0.3,1.3-1.1,2.8-2.4,4.5c-2.8,5-5.6,10.5-8.3,16.3
				c-2.7,5.8-4,11.2-4,16c0,1.9,0.2,3.4,0.6,4.5c0.4,1.1,1.3,1.7,2.7,1.7c2,0,4.8-1.6,8.1-4.8c3.4-3.2,6.6-8.5,9.8-15.7l0.5-0.2
				c0.9,0,1.5,0.2,1.7,0.7C413.9,250.7,413.9,250.9,413.9,250.7z M379.7,264.4c-0.2-0.8-0.2-1.5-0.2-2.1c0-0.6,0-1.3,0-2.1
				c0-4.6,0.7-9.4,2-14.4c1.3-5,2.9-9.7,4.6-14.2c-1.3-1.3-2.4-2.2-3.3-2.8c-0.9-0.6-2.4-0.9-4.2-0.9c-2.8,0-5.7,0.9-8.5,2.6
				c-2.8,1.7-5.4,4-7.8,6.7c-2.4,2.8-4.3,5.8-5.8,9.2c-1.5,3.4-2.2,6.8-2.2,10.3c0,1.7,0.1,3.5,0.4,5.2c0.2,1.7,0.7,3.4,1.5,5
				c0.8,1.6,2,2.8,3.5,3.8c1.6,0.9,3.7,1.4,6.4,1.4c3.8,0,6.7-1,8.8-2.9C377,267,378.6,265.5,379.7,264.4z"/>
			<path class="st0" d="M444.6,256.6c2-4.4,3.6-8.7,4.7-13c1.1-4.2,1.5-8.8,1.2-13.7c-5.7,1.3-10,2.5-13,3.8c-3,1.3-5.2,2.6-6.7,3.9
				c-1.5,1.3-2.5,2.6-3.1,3.8c-0.6,1.2-1.1,2.2-1.8,3.2c-4.6,9.1-8.7,17.7-12.5,25.8c-3.8,8.1-7.1,15.2-9.9,21.3
				c-2.8,6.1-5.9,12.8-9.2,20c-0.3,0-0.5-0.1-0.7-0.2c-0.3-0.2-0.5-0.3-0.6-0.4c-0.1-0.1-0.2-0.2-0.4-0.4l-0.2-0.2
				c0.2-0.9,0.6-2.9,1.4-6c0.8-3.1,1.8-6.8,3.1-11.1c1.3-4.3,2.7-9.1,4.2-14.3c1.6-5.2,3.2-10.5,4.8-15.9c1.7-5.4,3.3-10.7,4.8-15.7
				c1.6-5,3.1-9.6,4.5-13.7c0.3-0.9,0.9-2.5,1.7-4.7c0.8-2.2,1.7-4.5,2.6-7c0.9-2.4,1.8-4.8,2.5-7.1c0.7-2.3,1.2-4,1.5-5.3
				c0.3,0,1.1,0.3,2.4,0.8c1.3,0.6,2.6,1.3,4,2.4c1.4,1,2.7,2.2,3.9,3.5c1.2,1.3,1.9,2.7,2.2,4.1c0.5-0.3,2.1-1.2,5-2.6
				c2.8-1.4,5.9-2.1,9.2-2.1c5.3,0,8.9,1.7,10.6,5.1c1.7,3.4,2.4,7.4,2.1,12c-0.3,4.6-1.3,9.3-2.9,14c-1.7,4.7-3.1,8.4-4.4,11.1
				c3.9,0.8,6.9,1.5,9,2c2,0.6,3.5,1,4.5,1.3c0.9,0.3,1.5,0.6,1.7,0.8c0.2,0.2,0.2,0.4,0.2,0.6c0,0.9-0.4,1.4-1.2,1.4
				c-0.9,0-2.9-0.3-5.8-0.9c-2.9-0.6-6.4-1.1-10.5-1.4c-2.4,4.7-5.8,8.6-10.4,11.8c-4.6,3.1-9.3,4.7-14.2,4.7c-4.1,0-7-0.9-8.8-2.8
				c-1.8-1.9-2.7-3.9-2.7-6.1c0-3,0.9-5.4,2.6-7.2c1.7-1.8,3.8-3.1,6.1-4c2.4-0.9,4.8-1.4,7.3-1.7c2.5-0.2,4.6-0.4,6.4-0.4
				c0.8,0,1.6,0,2.4,0C443,256.4,443.8,256.5,444.6,256.6z M437.8,266c0.8-0.5,1.5-1.1,2-1.9c0.5-0.8,1.2-1.7,2-2.6
				c-1.9,0-3.8,0.2-5.8,0.6c-2,0.4-3.8,0.9-5.4,1.5c-1.7,0.6-3,1.4-4,2.2c-1,0.9-1.5,1.8-1.5,2.7v0.5c0.2,0.5,0.9,0.7,2.1,0.7
				c1.4,0,3.1-0.2,5.1-0.7C434.2,268.6,436,267.6,437.8,266z"/>
			<path class="st0" d="M530.7,250.7c-0.2,0.5-0.7,2.2-1.8,5.1c-1,2.9-2.5,5.9-4.4,9.1c-1.9,3.1-4.2,6-6.8,8.6
				c-2.7,2.6-5.7,3.9-9.2,3.9c-2,0-4-0.6-5.8-1.8c-1.8-1.2-3.6-3.7-5.3-7.4c-0.6,0.8-1.4,1.7-2.2,2.8c-0.9,1.1-2,2.1-3.3,3.1
				c-1.3,0.9-2.9,1.7-4.8,2.4c-1.9,0.6-4.2,0.9-6.8,0.9c-3.6,0-6.6-0.9-8.8-2.6c-2.3-1.7-4.1-3.8-5.3-6.3c-1.3-2.4-2.1-5-2.6-7.8
				c-0.5-2.7-0.7-5.1-0.7-7c0-3.9,0.8-8.2,2.5-12.9c1.7-4.6,4-9,7-13c3-4,6.6-7.3,10.9-10c4.2-2.7,9-4,14.2-4c3.1,0,5.5,0.4,7.1,1.2
				c1.6,0.8,3.2,1.7,5,2.6c0.5-0.9,0.9-1.9,1.3-2.8c0.4-0.9,0.7-1.7,0.8-2.4c0.2,0,0.8,0.4,1.9,1.1c1.1,0.7,2.3,1.7,3.7,2.8
				c1.3,1.2,2.6,2.5,3.7,3.9c1.1,1.4,1.7,2.8,1.7,4c0,0.8-0.2,1.8-0.5,3.1c-0.3,1.3-1.1,2.8-2.4,4.5c-2.8,5-5.6,10.5-8.3,16.3
				c-2.7,5.8-4,11.2-4,16c0,1.9,0.2,3.4,0.6,4.5c0.4,1.1,1.3,1.7,2.7,1.7c2,0,4.8-1.6,8.1-4.8c3.4-3.2,6.6-8.5,9.8-15.7l0.5-0.2
				c0.9,0,1.5,0.2,1.7,0.7C530.6,250.7,530.7,250.9,530.7,250.7z M496.5,264.4c-0.2-0.8-0.2-1.5-0.2-2.1c0-0.6,0-1.3,0-2.1
				c0-4.6,0.7-9.4,2-14.4c1.3-5,2.9-9.7,4.6-14.2c-1.3-1.3-2.4-2.2-3.3-2.8c-0.9-0.6-2.4-0.9-4.2-0.9c-2.8,0-5.7,0.9-8.5,2.6
				c-2.8,1.7-5.4,4-7.8,6.7c-2.4,2.8-4.3,5.8-5.8,9.2c-1.5,3.4-2.2,6.8-2.2,10.3c0,1.7,0.1,3.5,0.4,5.2c0.2,1.7,0.7,3.4,1.5,5
				c0.8,1.6,2,2.8,3.5,3.8c1.6,0.9,3.7,1.4,6.4,1.4c3.8,0,6.7-1,8.8-2.9C493.8,267,495.4,265.5,496.5,264.4z"/>
			<path class="st0" d="M561.8,216.8c0.2,0.8,0.2,1.6,0.1,2.4c-0.1,0.8-0.2,1.3-0.4,1.7c0.2,3.8,1,8.5,2.6,14.2
				c1.6,5.7,2.7,12.1,3.5,19.3c0.3,3.9-0.3,7.4-1.8,10.4c-1.5,3-3.5,5.5-6.1,7.5c-2.6,2-5.5,3.6-8.8,4.7c-3.3,1.1-6.5,1.7-9.7,1.7
				c-3.6,0-6.7-0.6-9.3-1.8c-2.6-1.2-4.8-2.7-6.5-4.5c-1.7-1.8-3-3.8-3.9-5.9c-0.9-2.1-1.3-4.1-1.3-6c0-2.4,0.6-4.4,1.8-6.3
				c1.2-1.8,2.9-2.9,5.1-3.2c1.4-2.4,3-5.1,4.7-8.3c1.7-3.1,3.5-6.3,5.3-9.6c1.8-3.2,3.5-6.3,5.1-9.3c1.6-3,3-5.5,4.2-7.5
				c0.3-0.6,0.7-1.5,1.1-2.6c0.4-1.1,0.7-2.2,1.1-3.2c0.3-1,0.7-1.9,1.2-2.7c0.5-0.8,0.9-1.2,1.4-1.2c1.7,1.1,3.4,2.2,5,3.3
				c1.3,0.9,2.4,2,3.5,3.2C560.8,214.3,561.5,215.5,561.8,216.8z M539.7,269.8c1.9,0,3.7-0.3,5.5-0.9c1.8-0.6,3.5-1.5,5.1-2.7
				c1.6-1.2,2.8-2.6,3.8-4.4c0.9-1.7,1.4-3.6,1.4-5.7c0-1.9-0.4-4.1-1.1-6.6c-0.7-2.5-1.5-5.1-2.5-7.9c-0.9-2.8-1.8-5.4-2.7-8
				c-0.9-2.6-1.5-4.9-2-7c-2.7,3.9-5.5,8-8.5,12.1c-3,4.2-5.7,7.9-8,11.2c3.1-0.8,5.7-1.2,7.7-1.2c2,0,2.9-0.1,2.7-0.2
				c0.2,0,0.3,0.1,0.5,0.2c0.3,0.3,0.5,0.8,0.5,1.4c0,0.5-0.8,0.9-2.5,1.2c-1.7,0.3-3.5,0.8-5.5,1.4c-2,0.6-3.9,1.4-5.5,2.4
				c-1.7,0.9-2.5,2.4-2.5,4.2c0,0.9,0.4,2,1.1,3.2c0.7,1.2,1.7,2.3,2.8,3.3c1.2,1,2.6,1.9,4.4,2.7
				C536,269.4,537.8,269.8,539.7,269.8z"/>
		</g>
	</g>
</g>
</svg>
