<?xml version="1.0" encoding="utf-8"?>
<!-- Generator: Adobe Illustrator 17.0.0, SVG Export Plug-In . SVG Version: 6.00 Build 0)  -->
<!DOCTYPE svg PUBLIC "-//W3C//DTD SVG 1.1//EN" "http://www.w3.org/Graphics/SVG/1.1/DTD/svg11.dtd">
<svg version="1.1" id="Layer_1" xmlns="http://www.w3.org/2000/svg" xmlns:xlink="http://www.w3.org/1999/xlink" x="0px" y="0px"
	 width="64px" height="64px" viewBox="0 0 64 64" enable-background="new 0 0 64 64" xml:space="preserve">
<g>
	<circle fill="#EA5553" cx="32" cy="32" r="32"/>
	<g>
		<g>
			<path fill="#FFFFFF" d="M45.726,21.479h-21.99c1.505,0,2.731,1.217,2.731,2.731v26.107l1.573,1.573l1.573-1.573l1.573-1.573
				l1.573,1.573l1.573,1.573l1.573-1.573l1.573-1.573l1.573,1.573l1.573,1.573l1.547-1.564l1.573-1.573l1.573,1.573l1.573,1.573
				l1.573-1.573V24.209C48.456,22.704,47.239,21.479,45.726,21.479z M31.734,44.001h-1.361c-0.423,0-0.769-0.347-0.769-0.769
				c0-0.423,0.347-0.769,0.769-0.769h1.361c0.423,0,0.761,0.338,0.769,0.769C32.503,43.654,32.156,44.001,31.734,44.001z
				 M31.734,40.256h-1.361c-0.423,0-0.769-0.347-0.769-0.769c0-0.423,0.347-0.769,0.769-0.769h1.361
				c0.423,0,0.769,0.347,0.769,0.769C32.503,39.909,32.156,40.256,31.734,40.256z M40.755,43.992h-5.96
				c-0.423,0-0.769-0.347-0.769-0.769s0.347-0.769,0.769-0.769h5.96c0.423,0,0.769,0.347,0.769,0.769S41.177,43.992,40.755,43.992z
				 M44.677,40.256h-9.883c-0.423,0-0.769-0.347-0.769-0.769c0-0.423,0.347-0.769,0.769-0.769h9.883
				c0.423,0,0.769,0.347,0.769,0.769C45.447,39.909,45.1,40.256,44.677,40.256z M44.677,35.986H30.373
				c-0.423,0-0.769-0.338-0.769-0.769c0-0.423,0.347-0.769,0.769-0.769h14.305c0.423,0,0.769,0.347,0.769,0.769
				S45.1,35.986,44.677,35.986z M29.603,31.472c0-0.423,0.347-0.769,0.769-0.769h10.39c0.423,0,0.769,0.347,0.769,0.769
				s-0.347,0.769-0.769,0.769h-10.39C29.95,32.241,29.603,31.903,29.603,31.472z M44.677,28.157H30.373
				c-0.423,0-0.769-0.347-0.769-0.769s0.347-0.769,0.769-0.769h14.305c0.423,0,0.769,0.347,0.769,0.769S45.1,28.157,44.677,28.157z"
				/>
			<path fill="#FFFFFF" d="M40.053,52.438c0.296,0.296,0.786,0.296,1.082,0l2.604-2.604l2.604,2.604
				c0.152,0.152,0.347,0.228,0.541,0.228s0.389-0.076,0.541-0.228l1.573-1.573c0.144-0.144,0.228-0.338,0.228-0.541V24.209
				c0-1.928-1.564-3.492-3.492-3.492h-5.876v-8.615c0-0.423-0.347-0.769-0.769-0.769H15.544c-0.423,0-0.769,0.347-0.769,0.769V38.21
				c0,1.928,1.564,3.492,3.492,3.492h4.43c0.423,0,0.769-0.347,0.769-0.769s-0.347-0.769-0.769-0.769h-1.539
				c0.38-0.558,0.609-1.234,0.609-1.961V24.209c0-1.082,0.879-1.961,1.961-1.961c1.082,0,1.961,0.879,1.961,1.961v26.107
				c0,0.051,0.008,0.101,0.017,0.152c0.008,0.034,0.017,0.059,0.025,0.093c0.008,0.017,0.008,0.034,0.017,0.051
				c0.017,0.034,0.034,0.068,0.051,0.093c0.008,0.008,0.008,0.025,0.017,0.034c0.025,0.042,0.059,0.085,0.093,0.118l1.573,1.573
				c0.296,0.296,0.786,0.296,1.082,0l2.604-2.604l2.604,2.604c0.296,0.296,0.786,0.296,1.082,0l2.604-2.604L40.053,52.438z
				 M20.236,24.209v14c0,1.082-0.879,1.961-1.961,1.961c-1.082,0-1.961-0.879-1.961-1.961V12.864h22.015v7.854H23.727
				C21.8,20.718,20.236,22.282,20.236,24.209z M34.312,50.807l-2.604-2.604c-0.152-0.152-0.347-0.228-0.541-0.228
				c-0.194,0-0.389,0.076-0.541,0.228l-2.604,2.604l-0.803-0.803V24.209c0-0.11-0.008-0.22-0.017-0.321
				c0-0.034-0.008-0.059-0.008-0.093c-0.008-0.076-0.017-0.152-0.034-0.228c-0.008-0.034-0.008-0.059-0.017-0.093
				c-0.017-0.093-0.042-0.194-0.076-0.287c0-0.008,0-0.008-0.008-0.017c-0.034-0.101-0.068-0.194-0.11-0.287
				c-0.008-0.025-0.025-0.051-0.034-0.085c-0.034-0.068-0.059-0.135-0.101-0.203c-0.017-0.025-0.025-0.051-0.042-0.085
				c-0.042-0.076-0.093-0.161-0.144-0.237c-0.008-0.008-0.008-0.017-0.017-0.025c0,0,0,0,0-0.008h19.098
				c1.082,0,1.961,0.879,1.961,1.961v25.803l-0.803,0.803l-2.604-2.604c-0.296-0.296-0.786-0.296-1.082,0l-2.604,2.604l-2.579-2.595
				c-0.296-0.296-0.786-0.296-1.082,0L34.312,50.807z"/>
		</g>
	</g>
</g>
</svg>
