<?xml version="1.0" encoding="utf-8"?>
<!-- Generator: Adobe Illustrator 17.0.0, SVG Export Plug-In . SVG Version: 6.00 Build 0)  -->
<!DOCTYPE svg PUBLIC "-//W3C//DTD SVG 1.1//EN" "http://www.w3.org/Graphics/SVG/1.1/DTD/svg11.dtd">
<svg version="1.1" id="Layer_1" xmlns="http://www.w3.org/2000/svg" xmlns:xlink="http://www.w3.org/1999/xlink" x="0px" y="0px"
	 width="64px" height="64px" viewBox="0 0 64 64" enable-background="new 0 0 64 64" xml:space="preserve">
<g>
	<circle fill="#9676B3" cx="32" cy="32" r="32"/>
	<g>
		<path fill="#FFFFFF" d="M36.05,20.467c1.961,1.116,3.387,3.084,3.732,5.426c0.794,0.331,1.668,0.503,2.584,0.463
			c3.346-0.143,5.941-2.972,5.798-6.317c-0.143-3.346-2.972-5.941-6.317-5.798C38.533,14.384,35.959,17.163,36.05,20.467z
			 M32.305,33.385c3.349,0,6.063-2.715,6.063-6.063s-2.715-6.063-6.063-6.063s-6.064,2.715-6.064,6.063S28.957,33.385,32.305,33.385
			z M34.859,34.08H29.75c-4.251,0-7.709,3.422-7.709,7.627v6.181l0.016,0.097l0.43,0.133c4.057,1.254,7.581,1.672,10.482,1.672
			c5.666,0,8.95-1.598,9.153-1.7l0.402-0.201h0.043v-6.182C42.568,37.502,39.11,34.08,34.859,34.08z M44.908,27.539h-5.105
			c-0.055,2.043-0.927,3.882-2.306,5.205c3.805,1.131,6.589,4.66,6.589,8.828v1.939c5.041-0.185,7.945-1.613,8.137-1.709
			l0.405-0.205h0.043v-6.294C52.671,31.021,49.188,27.539,44.908,27.539z M21.618,26.329c1.185,0.054,2.303-0.241,3.264-0.788
			c0.385-1.923,1.5-3.567,3.036-4.652c0.011-0.113,0.027-0.225,0.033-0.339c0.153-3.345-2.436-6.181-5.779-6.333
			c-3.346-0.153-6.181,2.435-6.333,5.781C15.685,23.341,18.272,26.177,21.618,26.329z M27.111,32.744
			c-1.372-1.316-2.241-3.146-2.305-5.176c-0.189-0.014-0.377-0.029-0.57-0.029h-5.144c-4.281,0-7.763,3.483-7.763,7.763v6.293
			l0.016,0.097l0.433,0.137c3.277,1.023,6.202,1.495,8.742,1.643v-1.9C20.522,37.403,23.305,33.876,27.111,32.744z"/>
	</g>
</g>
</svg>
